<?xml version="1.0" encoding="UTF-8" standalone="no"?>
<svg
   xmlns:dc="http://purl.org/dc/elements/1.1/"
   xmlns:cc="http://creativecommons.org/ns#"
   xmlns:rdf="http://www.w3.org/1999/02/22-rdf-syntax-ns#"
   xmlns:svg="http://www.w3.org/2000/svg"
   xmlns="http://www.w3.org/2000/svg"
   xmlns:sodipodi="http://sodipodi.sourceforge.net/DTD/sodipodi-0.dtd"
   xmlns:inkscape="http://www.inkscape.org/namespaces/inkscape"
   width="322.43088"
   height="227.52339"
   version="1.1"
   id="svg16"
   sodipodi:docname="logo.svg"
   inkscape:export-filename="/Users/wolfgang/Downloads/logo-color.png"
   inkscape:export-xdpi="76.220001"
   inkscape:export-ydpi="76.220001"
   inkscape:version="1.0.1 (c497b03c, 2020-09-10)">
  <metadata
     id="metadata22">
    <rdf:RDF>
      <cc:Work
         rdf:about="">
        <dc:format>image/svg+xml</dc:format>
        <dc:type
           rdf:resource="http://purl.org/dc/dcmitype/StillImage" />
        <dc:title></dc:title>
      </cc:Work>
    </rdf:RDF>
  </metadata>
  <defs
     id="defs20" />
  <sodipodi:namedview
     pagecolor="#ffffff"
     bordercolor="#666666"
     borderopacity="1"
     objecttolerance="10"
     gridtolerance="10"
     guidetolerance="10"
     inkscape:pageopacity="0.2"
     inkscape:pageshadow="2"
     inkscape:window-width="1656"
     inkscape:window-height="1065"
     id="namedview18"
     showgrid="false"
     inkscape:zoom="3.2236842"
     inkscape:cx="96.133462"
     inkscape:cy="113.89742"
     inkscape:window-x="0"
     inkscape:window-y="25"
     inkscape:window-maximized="0"
     inkscape:current-layer="g14"
     fit-margin-top="0"
     fit-margin-left="0"
     fit-margin-right="0"
     fit-margin-bottom="0" />
  <g
     fill-rule="nonzero"
     fill="none"
     id="g14"
     transform="translate(-0.22368128,-0.10257823)">
    <path
       d="m 298.995,58.698 c 38.39,0.807 -27.728,0.256 -9.737,1.82 10.062,1.229 31.767,1.129 32.473,6.11 0.086,0.723 -3.207,2.495 -3.919,2.65 -4.56,0.996 -19.297,1.827 -22.661,2.067 -50.442,2.156 -92.057,1.683 -142.406,-2.521 -9.839,-3.275 -8.145,-7.368 -3.305,-7.2 50.65,-4.102 98.819,-5.144 149.555,-2.926 z m -65.835,49.846 c 15.163,-0.308 26.16,-0.289 41.318,-0.215 13.597,0.313 17.164,0.258 29.79,0.992 2.196,0.128 10.28,0.246 13.146,1.59 9.85,4.188 -1.393,7.626 -1.923,7.49 -3.58,1.351 -10.756,1.408 -13.962,1.589 -12.955,0.731 -16.366,0.674 -30.3,0.992 -29.887,0.146 -55.13,-0.656 -84.926,-3.301 -7.432,-2.57 -3.03,-7 1.43,-6.862 63.162,3.332 -27.047,-0.8 45.427,-2.275 z M 106.183,214.161 c 39.068,-3.008 59.857,-3.96 99.025,-4.115 12.474,-0.05 30.912,0.12 43.385,0.18 19.923,0.506 34.106,0.54 53.354,2.044 11.508,0.9 -59.658,-1.48 13.962,2.662 0.56,0.143 16.134,3.45 -2.032,7.912 -35.333,3.234 -3.23,1.752 -15.329,2.661 -19.92,1.497 -33.714,1.526 -54.403,2.044 -50.983,0.244 -89.528,0.142 -140.389,-3.935 -2.7,-0.217 -6.603,-0.375 -7.407,-2.888 -0.825,-2.576 0.566,-4.61 2.39,-5.298 2.681,-1.013 4.596,-1.047 7.444,-1.267 z M 111.277,6.75 c 9.818,-0.734 25.427,0.212 32.282,-0.05 25.882,-0.99 41.91,-1.51 67.896,-1.583 12.343,-0.034 25.878,0.182 38.221,0.273 21.133,0.591 32.5,-1.243 52.572,0.114 4.337,0.293 8.669,0.25 12.986,0.761 0,0 3.008,1.061 6.469,6.12 -0.22,0.489 -5.88,-1.355 -5.66,-1.844 0.854,1.841 3.54,3.745 2.563,5.524 -0.999,1.82 -4.082,0.77 -6.145,1 -22.262,2.481 -44.727,2.478 -67.081,3.212 -12.39,0.091 -25.971,0.307 -38.36,0.272 -25.728,-0.07 -41.47,-0.583 -67.085,-1.582 -6.555,-0.255 -21.672,-1.647 -31.182,-2.387 -3.155,-0.246 -8.589,-0.816 -11.735,-2.372 -4.198,-5.005 3.745,-6.578 4.296,-6.436 3.321,-0.34 6.634,-0.773 9.963,-1.022 z m 47.485,153.929 c 23.055,-5.478 64.825,-0.696 107.088,-0.494 14.846,0.435 28.936,-1.932 43.66,-0.707 10.523,0.143 16.6,6.21 8.314,9.857 -7.858,1.89 -4.271,1.013 -11.423,2.25 -15.279,1.22 -29.094,1.368 -44.591,1.814 -45.533,0.218 -71.216,-0.639 -116.6,-4.784 -8.522,-4.194 1.178,-7.118 1.728,-6.977 3.94,-0.348 -11.232,4.519 11.824,-0.96 z"
       fill="#f6a623"
       id="path10"
       style="fill:#404040;fill-opacity:1" />
    <path
       d="m 109.936,70.947 c 12.342,11.023 25.304,24.379 35.964,36.496 1.089,1.238 2.222,2.463 3.07,3.876 0.381,0.638 0.4,1.433 0.549,2.16 0.509,2.49 -1.59,2.794 -2.923,3.295 -1.333,0.502 -2.491,0.011 -4.264,-0.684 -1.773,-0.695 -4.112,-2.196 -4.112,-2.196 -0.307,0.506 -9.118,13.004 -11.549,15.677 a 414.282,414.282 0 0 1 -16.735,17.393 c -20.308,19.876 -19.963,20.462 -41.96,39.268 -18.396,14.395 -25.578,20.721 -44.141,32.92 -4.148,2.725 -14.162,7.45 -14.162,7.45 -8.195,1.717 -13.106,0.671 -6.086,-7.699 18.29,-13.785 37.305,-32.088 52.775,-44.839 42.855,-35.002 4.049,-4.55 45.011,-37.954 6.192,-5.049 10.44,-8.51 16.563,-13.64 3.472,-2.91 6.529,-5.66 9.918,-8.666 1.31,-1.163 2.425,-2.573 3.885,-3.541 0.277,-0.184 0.625,2.255 0.937,2.37 0.934,-0.845 1.563,-1.629 1.563,-1.629 0,0 -1.955,-1.257 -4.24,-3.063 -12.802,-10.12 -16.447,-13.54 -29.7,-24.954 C 72.544,58.299 45.39,33.03 20.989,4.944 20.303,-0.225 21.675,-0.258 26.663,0.394 55.091,23.503 82.888,45.9 109.936,70.947 Z"
       fill="#5e5c5c"
       id="path12"
       style="fill:#1e1c1c;fill-opacity:1" />
  </g>
</svg>
