<?xml version="1.0" encoding="UTF-8" standalone="no"?>
<svg
   xmlns:dc="http://purl.org/dc/elements/1.1/"
   xmlns:cc="http://creativecommons.org/ns#"
   xmlns:rdf="http://www.w3.org/1999/02/22-rdf-syntax-ns#"
   xmlns:svg="http://www.w3.org/2000/svg"
   xmlns="http://www.w3.org/2000/svg"
   xmlns:sodipodi="http://sodipodi.sourceforge.net/DTD/sodipodi-0.dtd"
   xmlns:inkscape="http://www.inkscape.org/namespaces/inkscape"
   width="16"
   height="16"
   version="1.1"
   id="svg839"
   sodipodi:docname="menu-icon-light.svg"
   inkscape:version="1.0.1 (c497b03c, 2020-09-10)">
  <metadata
     id="metadata845">
    <rdf:RDF>
      <cc:Work
         rdf:about="">
        <dc:format>image/svg+xml</dc:format>
        <dc:type
           rdf:resource="http://purl.org/dc/dcmitype/StillImage" />
        <dc:title></dc:title>
      </cc:Work>
    </rdf:RDF>
  </metadata>
  <defs
     id="defs843" />
  <sodipodi:namedview
     pagecolor="#ffffff"
     bordercolor="#666666"
     borderopacity="1"
     objecttolerance="10"
     gridtolerance="10"
     guidetolerance="10"
     inkscape:pageopacity="0"
     inkscape:pageshadow="2"
     inkscape:window-width="1469"
     inkscape:window-height="884"
     id="namedview841"
     showgrid="false"
     inkscape:zoom="13.05599"
     inkscape:cx="22.204145"
     inkscape:cy="13.414039"
     inkscape:window-x="0"
     inkscape:window-y="25"
     inkscape:window-maximized="0"
     inkscape:current-layer="svg839" />
  <g
     fill-rule="nonzero"
     fill="none"
     id="g837"
     transform="matrix(0.05926365,0,0,0.06296156,0.57793853,1.0627634)">
    <path
       d="m 235.52456,58.698 c 26.3985,0.807 -19.06689,0.256 -6.69555,1.82 6.91903,1.229 21.84426,1.129 22.32973,6.11 0.0591,0.723 -2.20526,2.495 -2.69486,2.65 -3.13564,0.996 -13.26939,1.827 -15.58261,2.067 -34.68594,2.156 -63.30209,1.683 -97.92408,-2.521 -6.76569,-3.275 -5.60083,-7.368 -2.27265,-7.2 34.82897,-4.102 67.95191,-5.144 102.84002,-2.926 z m -45.27079,49.846 c 10.42669,-0.308 17.98867,-0.289 28.41191,-0.215 9.34985,0.313 11.80266,0.258 20.4848,0.992 1.51006,0.128 7.06894,0.246 9.03972,1.59 6.77326,4.188 -0.95788,7.626 -1.32233,7.49 -2.46175,1.351 -7.39626,1.408 -9.60083,1.589 -8.90838,0.731 -11.25392,0.674 -20.8355,0.992 -20.5515,0.146 -37.9096,-0.656 -58.39852,-3.301 -5.11054,-2.57 -2.08355,-7 0.98332,-6.862 43.43273,3.332 -18.5986,-0.8 31.23743,-2.275 z m -87.31448,105.617 c 26.86472,-3.008 41.16007,-3.96 68.09356,-4.115 8.57763,-0.05 21.25633,0.12 29.83327,0.18 13.69985,0.506 23.45265,0.54 36.68835,2.044 7.91336,0.9 -41.02323,-1.48 9.60083,2.662 0.38508,0.143 11.09439,3.45 -1.39728,7.912 -24.29639,3.234 -2.22108,1.752 -10.54084,2.661 -13.69779,1.497 -23.1831,1.526 -37.40968,2.044 -35.05796,0.244 -61.56305,0.142 -96.53711,-3.935 -1.856631,-0.217 -4.54049,-0.375 -5.093353,-2.888 -0.567303,-2.576 0.389204,-4.61 1.64346,-5.298 1.843563,-1.013 3.160393,-1.047 5.118793,-1.267 z M 106.44213,6.75 c 6.75125,-0.734 17.48462,0.212 22.1984,-0.05 17.7975,-0.99 28.81899,-1.51 46.68801,-1.583 8.48754,-0.034 17.79475,0.182 26.28229,0.273 14.5319,0.591 22.34831,-1.243 36.15062,0.114 2.9823,0.293 5.96115,0.25 8.92969,0.761 0,0 2.06843,1.061 4.44835,6.12 -0.15128,0.489 -4.04333,-1.355 -3.89204,-1.844 0.58724,1.841 2.43424,3.745 1.76242,5.524 -0.68696,1.82 -2.80695,0.77 -4.22555,1 -15.30825,2.481 -30.75608,2.478 -46.12759,3.212 -8.51986,0.091 -17.8587,0.307 -26.37787,0.272 -17.69161,-0.07 -28.51644,-0.583 -46.13034,-1.582 -4.50748,-0.255 -14.90254,-1.647 -21.44199,-2.387 -2.16951,-0.246 -5.906146,-0.816 -8.069462,-2.372 -2.886713,-5.005 2.575213,-6.578 2.954102,-6.436 2.28365,-0.34 4.5618,-0.773 6.85096,-1.022 z m 32.65259,153.929 c 15.85354,-5.478 44.57627,-0.696 73.63801,-0.494 10.2087,0.435 19.89755,-1.932 30.02236,-0.707 7.23604,0.143 11.41483,6.21 5.71704,9.857 -5.40347,1.89 -2.93691,1.013 -7.85491,2.25 -10.50645,1.22 -20.0062,1.368 -30.66256,1.814 -31.31032,0.218 -48.97098,-0.639 -80.17884,-4.784 -5.86007,-4.194 0.81004,-7.118 1.18824,-6.977 2.70931,-0.348 -7.72357,4.519 8.13066,-0.96 z"
       fill="#f6a623"
       id="path833"
       style="fill:#000000;fill-opacity:1;stroke-width:0.829241" />
    <path
       d="m 98.544905,70.947 c 11.060565,11.023 22.676765,24.379 32.229965,36.496 0.97594,1.238 1.9913,2.463 2.75125,3.876 0.34145,0.638 0.35847,1.433 0.492,2.16 0.45616,2.49 -1.42491,2.794 -2.61951,3.295 -1.1946,0.502 -2.23237,0.011 -3.82128,-0.684 -1.58892,-0.695 -3.68507,-2.196 -3.68507,-2.196 -0.27512,0.506 -8.1713,13.004 -10.3499,15.677 a 371.26837,414.282 0 0 1 -14.997455,17.393 c -18.199482,19.876 -17.890303,20.462 -37.603421,39.268 -16.486,14.395 -22.922315,20.721 -39.557975,32.92 -3.717326,2.725 -12.6916029,7.45 -12.6916029,7.45 -7.3441382,1.717 -11.7452441,0.671 -5.4541092,-7.699 16.3910051,-13.785 33.4317361,-32.088 47.2955331,-44.839 38.405496,-35.002 3.628605,-4.55 40.337645,-37.954 5.549104,-5.049 9.356045,-8.51 14.843315,-13.64 3.11151,-2.91 5.85111,-5.66 8.88824,-8.666 1.17399,-1.163 2.17322,-2.573 3.48164,-3.541 0.24824,-0.184 0.5601,2.255 0.83971,2.37 0.83703,-0.845 1.40072,-1.629 1.40072,-1.629 0,0 -1.75202,-1.257 -3.79977,-3.063 C 105.05202,97.821 101.78547,94.401 89.908485,82.987 65.035202,58.299 40.700519,33.03 18.833,4.944 18.218226,-0.225 19.447775,-0.258 23.917886,0.394 49.394294,23.503 74.305216,45.9 98.544905,70.947 Z"
       fill="#5e5c5c"
       id="path835"
       style="stroke-width:0.946664;fill:#000000;fill-opacity:1" />
  </g>
</svg>
